<svg width="512" height="512" viewBox="0 0 512 512" fill="none" xmlns="http://www.w3.org/2000/svg">
  <rect width="512" height="512" rx="112" fill="url(#paint0_linear)"/>
  
  <!-- Sombra do Sacolé -->
  <rect x="180" y="160" width="120" height="260" rx="60" fill="black" fill-opacity="0.15" transform="rotate(5 240 290)"/>
  
  <!-- Nó do Sacolé -->
  <path d="M226.5 130C226.5 118.954 235.454 110 246.5 110H265.5C276.546 110 285.5 118.954 285.5 130V150H226.5V130Z" fill="white" fill-opacity="0.95"/>
  <rect x="236" y="140" width="40" height="20" rx="10" fill="white"/>
  
  <!-- Corpo do Sacolé -->
  <rect x="196" y="150" width="120" height="260" rx="60" fill="url(#paint1_linear)"/>
  
  <!-- Brilho (Reflexo do plástico) -->
  <rect x="216" y="170" width="20" height="220" rx="10" fill="white" fill-opacity="0.6"/>
  
  <!-- Detalhe de sabor (frutinhas) -->
  <circle cx="230" cy="220" r="8" fill="#FF2A55" fill-opacity="0.8"/>
  <circle cx="270" cy="280" r="10" fill="#FF2A55" fill-opacity="0.8"/>
  <circle cx="240" cy="340" r="6" fill="#FF2A55" fill-opacity="0.8"/>
  
  <defs>
    <linearGradient id="paint0_linear" x1="0" y1="0" x2="512" y2="512" gradientUnits="userSpaceOnUse">
      <stop stop-color="#FF7A00"/>
      <stop offset="1" stop-color="#FF006B"/>
    </linearGradient>
    <linearGradient id="paint1_linear" x1="256" y1="150" x2="256" y2="410" gradientUnits="userSpaceOnUse">
      <stop stop-color="white" stop-opacity="0.95"/>
      <stop offset="1" stop-color="white" stop-opacity="0.4"/>
    </linearGradient>
  </defs>
</svg>
